<svg xmlns="http://www.w3.org/2000/svg" viewBox="0 0 295.01 151.13"><defs><style>.cls-1,.cls-4,.cls-7{fill:#fab533;}.cls-10,.cls-13,.cls-2,.cls-3{fill:none;}.cls-10,.cls-11,.cls-13,.cls-16,.cls-18,.cls-19,.cls-2,.cls-3,.cls-4,.cls-5,.cls-7{stroke:#3b2d55;}.cls-10,.cls-11,.cls-13,.cls-16,.cls-18,.cls-19,.cls-2,.cls-3,.cls-7{stroke-linecap:round;stroke-linejoin:round;}.cls-2,.cls-4,.cls-5,.cls-7{stroke-width:2.77px;}.cls-3{stroke-width:1.98px;}.cls-4,.cls-5{stroke-miterlimit:10;}.cls-18,.cls-19,.cls-5{fill:#fff;}.cls-6{fill:#3b2d55;}.cls-11,.cls-8{fill:#eecea1;}.cls-9{fill:#ad9382;}.cls-10,.cls-11{stroke-width:2.73px;}.cls-12{fill:#b03831;}.cls-13{stroke-width:1.96px;}.cls-14{fill:#8a7362;}.cls-15{fill:#3a2d55;}.cls-16,.cls-17{fill:#57d1e5;}.cls-16,.cls-18{stroke-width:2.76px;}.cls-19{stroke-width:2.3px;}</style></defs><g id="Layer_2" data-name="Layer 2"><g id="Layer_1-2" data-name="Layer 1"><path class="cls-1" d="M269.51,84.53s11.21,12.86,3.13,25.89S254,92.61,254,92.61Z"/><path class="cls-1" d="M268.16,95.14l1.72,25.21L268.17,137h6a6,6,0,0,1,6,6h0a6,6,0,0,1-6,6H206.41A29.87,29.87,0,0,1,176.54,119V83.19a29.87,29.87,0,0,1,29.87-29.88h0a6,6,0,0,1,6,6h0a6,6,0,0,1-6,6h0a17.92,17.92,0,0,0-17.92,17.93V119A17.92,17.92,0,0,0,206.41,137h8.49l-2.51-19.92c0-16.43,12.89-30.14,28.8-31.87"/><path class="cls-2" d="M228.33,116.37c9.25-4,15.93,3.82,15.94,12.62v8h6a6,6,0,0,1,6,6h0a6,6,0,0,1-6,6h-6"/><path class="cls-2" d="M266.67,97.31c4.24,7.19,3.56,29.47,1.5,39.66h6a6,6,0,0,1,6,6h0a6,6,0,0,1-6,6H206.41A29.87,29.87,0,0,1,176.54,119V83.19a29.87,29.87,0,0,1,29.87-29.88h0a6,6,0,0,1,6,6h0a6,6,0,0,1-6,6h0a17.92,17.92,0,0,0-17.92,17.93V119A17.92,17.92,0,0,0,206.41,137h9a62.3,62.3,0,0,1-3-19.92c0-15.36,12.89-30.14,28.8-31.87"/><path class="cls-2" d="M271.31,85.08l2,5.4a25.85,25.85,0,0,1-3.47,24.3"/><path class="cls-3" d="M230.72,89c-1.46,3.41-.73,8.53.73,10.49"/><path class="cls-3" d="M224.92,92.27c-.95,3.59.53,8.55,2.26,10.27"/><path class="cls-4" d="M255.74,91c-.09,0-18.76,1.32-26-13.09-6.6-13.19-.12-32.59,3.63-40.29a2.85,2.85,0,0,1,4.43-.91,29.47,29.47,0,0,1,8,11.33,37,37,0,0,1,19.73,0,29.47,29.47,0,0,1,8-11.33,2.85,2.85,0,0,1,4.43.91c3.75,7.7,10.23,27.1,3.63,40.29C274.49,92.31,255.82,91,255.74,91Z"/><path class="cls-5" d="M249.41,69.3c1.16-2.86-1.35-8-3.86-9.52-6.3-3.82-12.85,7.3-7.11,11,2.63,1.71,7.1,1.94,9.71.08A3.59,3.59,0,0,0,249.41,69.3Z"/><path class="cls-5" d="M262.06,69.3c-1.16-2.86,1.35-8,3.86-9.52,6.3-3.82,12.85,7.3,7.11,11-2.62,1.71-7.1,1.94-9.71.08A3.59,3.59,0,0,1,262.06,69.3Z"/><ellipse class="cls-6" cx="243.85" cy="67.14" rx="3.01" ry="4.39"/><path class="cls-6" d="M264.56,67.14c0,2.43,1.34,4.39,3,4.39s3-2,3-4.38-1.34-4.4-3-4.4S264.56,64.72,264.56,67.14Z"/><path class="cls-7" d="M248,78.3c1.43,2.37,5.26,2.62,7.75,1.25,2.48,1.37,6.31,1.12,7.74-1.25"/><path class="cls-7" d="M253.71,74l2,.25,2-.25"/><line class="cls-3" x1="242.55" y1="77.52" x2="220.51" y2="73.81"/><line class="cls-3" x1="241.79" y1="81.33" x2="218.27" y2="80.72"/><line class="cls-3" x1="269.74" y1="77.52" x2="291.78" y2="73.81"/><line class="cls-3" x1="270.5" y1="81.33" x2="294.02" y2="80.72"/><path class="cls-3" d="M219.8,96.71c-.32,3.7,2,8.34,4,9.73"/><path class="cls-8" d="M117.65,106.41a4.46,4.46,0,0,0-4.46,4.46v8c0,6.73-3.36,18.28-12.13,10.23l-1.16,2.07a50.28,50.28,0,0,0,.72-14.79c-1.06-13.12-19.45-28.66-29.54-40.21A96.26,96.26,0,0,1,59.26,58.36l.12-2a22.52,22.52,0,0,0,1-11.87l-.17-.68s-1.86-7.31-2.15-8.5l1,.73c3.85-3.11,9.48-6.67,5.53-12.49-4.21-6.21-7.38-6.52-8.89-6.33s-4.48,2.77-3,4.28l-2.14-2.31a5.54,5.54,0,0,0-4.06-1.77l-11.94-1.8H33.32l-12.81,1.8a5.54,5.54,0,0,0-4.06,1.77c-.94,1-2,2.1-2.14,2.31,1.45-1.51-1.46-4.08-3-4.28s-4.68.12-8.89,6.33C-1.56,29.41,4.07,33,7.92,36.08l1-.73c-.84,3.35-1.77,7-2.32,9.18-1.19,4.59-.3,17.34,9.48,21.34,2.36,1,4.36,1.68,6.05,2.22l-.08.27c-3.46,12-.36,23,2,29l3.06,6.5a13.1,13.1,0,0,1,1.25,5.57v22.79a2.6,2.6,0,0,1-1.53,2.37l-7.27,3.29A5.92,5.92,0,0,0,22,149.2H43.62a2.3,2.3,0,0,0,2.31-2.31v-.08a5.37,5.37,0,0,0,4.59,2.39h39.9a1.91,1.91,0,0,0,1.83-2.48l-.61-2,1.22-1-.58,1c8.34,0,7.46.15,15.94.15s13.89-8.05,13.89-15.21V110.87A4.46,4.46,0,0,0,117.65,106.41Z"/><path class="cls-9" d="M35.4,70.89c-.67,6-12.84,8.5-9.84,30.35A48.74,48.74,0,0,1,22,68.36l5.69,1.19Z"/><path class="cls-9" d="M61.91,64.1c-4,6-1.5,15.69,7,25.51s29.39,20.06,27.28,16.24C89.6,94,67.23,74.2,61.91,64.1Z"/><path class="cls-10" d="M50.52,93a25.33,25.33,0,0,0-4.58,15v38.92a2.31,2.31,0,0,1-2.31,2.31H22a5.92,5.92,0,0,1-5.93-5.92h0a5.92,5.92,0,0,1,3.48-5.4l7.28-3.29a2.6,2.6,0,0,0,1.52-2.37V109.43a13.09,13.09,0,0,0-1.24-5.57l-3.07-6.5c-2.4-6-5.5-17-2-29"/><path class="cls-10" d="M59.27,58.36A96.26,96.26,0,0,0,71.09,76.14c10.09,11.55,28.48,27.09,29.53,40.21,1,12.72-1.9,18.57-1.9,18.57"/><path class="cls-10" d="M92.29,144.72c8.33,0,7.46.15,15.94.15s13.89-8.05,13.89-15.21V110.87a4.46,4.46,0,0,0-4.46-4.46h0a4.46,4.46,0,0,0-4.46,4.46v8c0,6.73-3.36,18.28-12.14,10.23"/><path class="cls-10" d="M38.88,31.74c.82-1.58,2.46-3,5.48-3a5.82,5.82,0,0,1,5.49,3"/><path class="cls-10" d="M18,31.74c.81-1.58,2.45-3,5.48-3a5.79,5.79,0,0,1,5.48,3"/><path class="cls-10" d="M11.06,28.08s-3,11.86-4.15,16.45-.3,17.34,9.48,21.34a56.12,56.12,0,0,0,17,4.31l.06,0a58.42,58.42,0,0,0,17.7-4.34c9.78-4,10.67-16.75,9.48-21.34s-4.15-16.45-4.15-16.45"/><path class="cls-10" d="M59.33,36.08c3.85-3.11,9.48-6.67,5.53-12.49-4.21-6.21-7.38-6.52-8.89-6.33s-4.51,2.8-3,4.3c.14.14-1.07-1.16-2.16-2.33-4.45-4.79-29.58-4.74-34,0-1.1,1.16-2.29,2.47-2.16,2.33,1.5-1.5-1.43-4.1-3-4.3s-4.68.12-8.89,6.33C-1.24,29.41,4.39,33,8.24,36.08"/><path class="cls-11" d="M88.34,134l3.92,12.72a1.91,1.91,0,0,1-1.83,2.48H50.52c-6.63,0-8.19-10.13-.19-12.08S64.56,134,64.56,134s-4.52-4-7.51-7c-4.77-4.88-3.31-13.16,2.05-18.23,5.67-5.36,19-8,23.59,5"/><path class="cls-12" d="M41.31,57.6v5.52a7.64,7.64,0,0,1-7.63,7.64h0A7.64,7.64,0,0,1,26,63.12V57.6l7.81-4.35Z"/><path class="cls-13" d="M41.25,57.6v5.52a7.64,7.64,0,0,1-7.63,7.64h0A7.63,7.63,0,0,1,26,63.12V57.6"/><path class="cls-10" d="M53.2,49.3c0,4.52-4.33,8.18-9.68,8.18s-9.68-3.66-9.68-8.18"/><path class="cls-10" d="M33.74,49.3c0,4.52-4.33,8.18-9.68,8.18s-9.68-3.66-9.68-8.18"/><path class="cls-14" d="M36.11,40.44H31.24a3.15,3.15,0,0,0-2.57,5l1.26,1.78a4.59,4.59,0,0,0,7.49,0l1.26-1.78A3.15,3.15,0,0,0,36.11,40.44Z"/><path class="cls-10" d="M36.18,40.37H31.31a3.15,3.15,0,0,0-2.57,5L30,47.12a4.59,4.59,0,0,0,7.49,0l1.26-1.78A3.15,3.15,0,0,0,36.18,40.37Z"/><path class="cls-15" d="M33,53.23l.25,10.26c0,.75.6.76.63,0l.42-10.28Z"/><path class="cls-16" d="M129,139.78A8.52,8.52,0,0,1,112.28,143s-15.6-73.21-15.6-88.2c0-31.32,24.87-53.43,59.87-53.43s59.87,22.11,59.87,53.43c0,15-15.6,88.2-15.6,88.2a8.52,8.52,0,0,1-16.73-3.23"/><path class="cls-17" d="M197,118.81l-4.26,23.84a8.52,8.52,0,0,1-16.85-2.51"/><path class="cls-6" d="M197.89,119q-.91,6.24-1.92,12.48l-1,6.23-.52,3.11a30.31,30.31,0,0,1-.63,3.26A9.9,9.9,0,0,1,174.5,140a1.38,1.38,0,0,1,2.74.32,7.19,7.19,0,0,0,1.34,5,7.08,7.08,0,0,0,4.29,2.79,7.23,7.23,0,0,0,5.07-.8,7.08,7.08,0,0,0,3.21-4c.23-.77.41-1.91.61-2.92l.6-3.1,1.19-6.2c.82-4.13,1.65-8.26,2.52-12.38a.93.93,0,0,1,1.82.33Z"/><circle class="cls-18" cx="136.29" cy="49.28" r="26.71"/><path class="cls-6" d="M141.81,31.78c-4.6.92-5.52,11-2.76,13.82,1.82,1.81,5.53,2.42,5.53,3.68s-3.71,1.87-5.53,3.69c-2.76,2.76-1.84,12.89,2.76,13.81,5.5,1.1,13.82-5.52,13.82-17.5S147.31,30.68,141.81,31.78Z"/><path class="cls-19" d="M123.39,85.21c.92,2.76,3.69,7.37,7.37,6.44,1.79-.44,2.76-2.76,2.76-6.44"/><path class="cls-18" d="M147.34,83.36c.92,3.69,1.84,6.45,4.61,6.45s6.44-3.68,5.52-10.13"/><path class="cls-6" d="M118,83.15A71.28,71.28,0,0,0,144.51,82a71,71,0,0,0,24.15-10.8,1.38,1.38,0,1,1,1.58,2.27h0a73.53,73.53,0,0,1-25.15,11,73.35,73.35,0,0,1-27.38,1,1.15,1.15,0,1,1,.33-2.27Z"/><path class="cls-6" d="M170.73,75.55a5.88,5.88,0,0,0-1.86-3.23,5.69,5.69,0,0,0-3.3-1.41,1.38,1.38,0,1,1,.21-2.76l.14,0h0a8.21,8.21,0,0,1,4.54,2.51,8,8,0,0,1,2.06,4.61.93.93,0,0,1-1.83.27Z"/><path class="cls-17" d="M137.23,140.14a8.52,8.52,0,0,1-16.85,2.51l-4.26-23.84"/><path class="cls-6" d="M138.61,140a9.9,9.9,0,0,1-7.77,10.93,9.77,9.77,0,0,1-7.11-1.18,10,10,0,0,1-4.43-5.66c-.35-1.26-.43-2.21-.63-3.26l-.51-3.12-1-6.23q-1-6.24-1.92-12.48a.92.92,0,0,1,1.81-.33q1.31,6.18,2.52,12.38l1.2,6.2.59,3.1c.2,1,.38,2.15.62,2.92a7.14,7.14,0,0,0,13.9-2.94h0a1.39,1.39,0,0,1,2.75-.33Z"/><path class="cls-17" d="M149.54,140.69a8.52,8.52,0,0,1-17,1.41l-2.69-23.89"/><path class="cls-6" d="M150.92,140.61a9.9,9.9,0,0,1-8.41,10.4,9.89,9.89,0,0,1-7-1.6,10,10,0,0,1-4.08-5.87,28.47,28.47,0,0,1-.44-3.3l-.31-3.13-.61-6.26c-.4-4.18-.77-8.35-1.1-12.54a.92.92,0,0,1,1.83-.2q.9,6.23,1.71,12.46l.79,6.24.39,3.12c.14,1,.23,2.15.43,2.93a7.14,7.14,0,0,0,14-2.1h0a1.38,1.38,0,0,1,1.32-1.44A1.39,1.39,0,0,1,150.92,140.61Z"/><path class="cls-17" d="M183.23,118.21l-2.68,23.89a8.52,8.52,0,0,1-17-1.41"/><path class="cls-6" d="M184.15,118.31c-.34,4.19-.71,8.36-1.1,12.54l-.62,6.26-.31,3.13a27.87,27.87,0,0,1-.43,3.29,9.9,9.9,0,0,1-19.5-2.91,1.37,1.37,0,0,1,1.46-1.3,1.39,1.39,0,0,1,1.3,1.44,7.1,7.1,0,0,0,1.65,4.86,7,7,0,0,0,4.43,2.52,7.14,7.14,0,0,0,5-1.09,7,7,0,0,0,3-4.18c.2-.78.3-1.9.44-2.93l.39-3.12.79-6.24q.81-6.24,1.71-12.47a.92.92,0,0,1,1.83.2Z"/><path class="cls-17" d="M165.76,117.45l-.69,24a8.52,8.52,0,0,1-17,0l-.69-24"/><path class="cls-6" d="M166.68,117.47q0,9.28-.14,18.55l-.08,4.64a12.33,12.33,0,0,1-.22,2.55,9.49,9.49,0,0,1-.9,2.54,9.87,9.87,0,0,1-17.57,0,10.34,10.34,0,0,1-.91-2.53,12.48,12.48,0,0,1-.22-2.56l-.08-4.63q-.17-9.28-.14-18.56a.92.92,0,0,1,.92-.92.93.93,0,0,1,.92.87q.56,9.26.93,18.53l.19,4.63a12,12,0,0,0,.2,2,7.18,7.18,0,0,0,.68,1.81,7.15,7.15,0,0,0,12.6,0,6.9,6.9,0,0,0,.66-1.81,11.18,11.18,0,0,0,.21-2.06l.19-4.63c.24-6.18.56-12.36.92-18.53a.92.92,0,0,1,1.84,0Z"/></g></g></svg>